<mxfile host="app.diagrams.net" agent="Mozilla/5.0 (Windows NT 10.0; Win64; x64) AppleWebKit/537.36 (KHTML, like Gecko) Chrome/128.0.0.0 Safari/537.36" version="24.7.10">
  <diagram name="第 1 页" id="d_n8VdiITfkLDy5SCD2Q">
    <mxGraphModel dx="3420" dy="1383" grid="1" gridSize="10" guides="1" tooltips="1" connect="1" arrows="1" fold="1" page="1" pageScale="1" pageWidth="827" pageHeight="1169" math="1" shadow="0">
      <root>
        <mxCell id="0" />
        <mxCell id="1" parent="0" />
        <mxCell id="dG040CZCFqrrKlF94xfp-41" value="" style="whiteSpace=wrap;html=1;aspect=fixed;fillColor=#e1d5e7;strokeColor=#9673a6;fontSize=16;" vertex="1" parent="1">
          <mxGeometry x="-75" y="195" width="50" height="50" as="geometry" />
        </mxCell>
        <mxCell id="dG040CZCFqrrKlF94xfp-119" style="edgeStyle=orthogonalEdgeStyle;rounded=0;orthogonalLoop=1;jettySize=auto;html=1;" edge="1" parent="1" source="dG040CZCFqrrKlF94xfp-1">
          <mxGeometry relative="1" as="geometry">
            <mxPoint x="640.5" y="137.5" as="targetPoint" />
          </mxGeometry>
        </mxCell>
        <mxCell id="dG040CZCFqrrKlF94xfp-1" value="(1,1)" style="whiteSpace=wrap;html=1;aspect=fixed;fillColor=#e1d5e7;strokeColor=#9673a6;fontSize=16;" vertex="1" parent="1">
          <mxGeometry x="545.5" y="87.5" width="45" height="45" as="geometry" />
        </mxCell>
        <mxCell id="dG040CZCFqrrKlF94xfp-2" value="(4,1)" style="whiteSpace=wrap;html=1;aspect=fixed;fillColor=#e1d5e7;strokeColor=#9673a6;fontSize=16;" vertex="1" parent="1">
          <mxGeometry x="375.5" y="190" width="45" height="45" as="geometry" />
        </mxCell>
        <mxCell id="dG040CZCFqrrKlF94xfp-3" value="(7,1)" style="whiteSpace=wrap;html=1;aspect=fixed;fillColor=#e1d5e7;strokeColor=#9673a6;fontSize=16;" vertex="1" parent="1">
          <mxGeometry x="-130" y="320" width="45" height="45" as="geometry" />
        </mxCell>
        <mxCell id="dG040CZCFqrrKlF94xfp-4" value="(4,4)" style="whiteSpace=wrap;html=1;aspect=fixed;fillColor=#e1d5e7;strokeColor=#9673a6;fontSize=16;" vertex="1" parent="1">
          <mxGeometry x="-130" y="425" width="45" height="45" as="geometry" />
        </mxCell>
        <mxCell id="dG040CZCFqrrKlF94xfp-9" value="(10,1)" style="whiteSpace=wrap;html=1;aspect=fixed;fillColor=#e1d5e7;strokeColor=#9673a6;fontSize=16;" vertex="1" parent="1">
          <mxGeometry x="215" y="429" width="45" height="45" as="geometry" />
        </mxCell>
        <mxCell id="dG040CZCFqrrKlF94xfp-10" value="(7,4)" style="whiteSpace=wrap;html=1;aspect=fixed;fillColor=#e1d5e7;strokeColor=#9673a6;fontSize=16;" vertex="1" parent="1">
          <mxGeometry x="25" y="531.5" width="45" height="45" as="geometry" />
        </mxCell>
        <mxCell id="dG040CZCFqrrKlF94xfp-11" value="(10,4)" style="whiteSpace=wrap;html=1;aspect=fixed;fillColor=#e1d5e7;strokeColor=#9673a6;fontSize=16;" vertex="1" parent="1">
          <mxGeometry x="25" y="656.5" width="45" height="45" as="geometry" />
        </mxCell>
        <mxCell id="dG040CZCFqrrKlF94xfp-12" value="(7,7)" style="whiteSpace=wrap;html=1;aspect=fixed;fillColor=#e1d5e7;strokeColor=#9673a6;fontSize=16;" vertex="1" parent="1">
          <mxGeometry x="25" y="761.5" width="45" height="45" as="geometry" />
        </mxCell>
        <mxCell id="dG040CZCFqrrKlF94xfp-13" value="(10,7)" style="whiteSpace=wrap;html=1;aspect=fixed;fillColor=#e1d5e7;strokeColor=#9673a6;fontSize=16;" vertex="1" parent="1">
          <mxGeometry x="376" y="839" width="45" height="45" as="geometry" />
        </mxCell>
        <mxCell id="dG040CZCFqrrKlF94xfp-14" value="&lt;font style=&quot;font-size: 14px;&quot;&gt;(10,10)&lt;/font&gt;" style="whiteSpace=wrap;html=1;aspect=fixed;fillColor=#e1d5e7;strokeColor=#9673a6;fontSize=16;" vertex="1" parent="1">
          <mxGeometry x="376" y="1020" width="45" height="45" as="geometry" />
        </mxCell>
        <mxCell id="dG040CZCFqrrKlF94xfp-15" value="$$Q_{(1,1)}$$" style="whiteSpace=wrap;html=1;aspect=fixed;fillColor=#ffe6cc;strokeColor=#d79b00;fontSize=16;" vertex="1" parent="1">
          <mxGeometry x="-130" y="839" width="50" height="50" as="geometry" />
        </mxCell>
        <mxCell id="dG040CZCFqrrKlF94xfp-16" value="$$R_{(1,1)}$$" style="whiteSpace=wrap;html=1;aspect=fixed;fillColor=#f8cecc;strokeColor=#b85450;fontSize=16;" vertex="1" parent="1">
          <mxGeometry x="-130" y="949" width="50" height="50" as="geometry" />
        </mxCell>
        <mxCell id="dG040CZCFqrrKlF94xfp-17" value="$$\Theta$$" style="text;html=1;align=center;verticalAlign=middle;resizable=0;points=[];autosize=1;strokeColor=none;fillColor=none;fontSize=16;" vertex="1" parent="1">
          <mxGeometry x="-100" y="207.5" width="100" height="30" as="geometry" />
        </mxCell>
        <mxCell id="dG040CZCFqrrKlF94xfp-18" value="&lt;font style=&quot;font-size: 16px;&quot;&gt;$$\mathbb{A}_1$$&lt;/font&gt;" style="whiteSpace=wrap;html=1;aspect=fixed;fontSize=16;fillColor=#bac8d3;strokeColor=#23445d;" vertex="1" parent="1">
          <mxGeometry x="25" y="372.5" width="45" height="45" as="geometry" />
        </mxCell>
        <mxCell id="dG040CZCFqrrKlF94xfp-19" value="" style="verticalLabelPosition=bottom;verticalAlign=top;html=1;shape=mxgraph.flowchart.summing_function;fontSize=16;fillColor=#f5f5f5;fontColor=#333333;strokeColor=#666666;" vertex="1" parent="1">
          <mxGeometry x="-50" y="899" width="40" height="40" as="geometry" />
        </mxCell>
        <mxCell id="dG040CZCFqrrKlF94xfp-71" style="edgeStyle=orthogonalEdgeStyle;rounded=0;orthogonalLoop=1;jettySize=auto;html=1;entryX=0;entryY=0.5;entryDx=0;entryDy=0;" edge="1" parent="1" source="dG040CZCFqrrKlF94xfp-20" target="dG040CZCFqrrKlF94xfp-70">
          <mxGeometry relative="1" as="geometry" />
        </mxCell>
        <mxCell id="dG040CZCFqrrKlF94xfp-20" value="" style="verticalLabelPosition=bottom;verticalAlign=top;html=1;shape=mxgraph.flowchart.or;fontSize=16;fillColor=#d5e8d4;strokeColor=#82b366;" vertex="1" parent="1">
          <mxGeometry x="460.5" y="192.5" width="40" height="40" as="geometry" />
        </mxCell>
        <mxCell id="dG040CZCFqrrKlF94xfp-21" style="edgeStyle=orthogonalEdgeStyle;rounded=0;orthogonalLoop=1;jettySize=auto;html=1;exitX=1;exitY=0.5;exitDx=0;exitDy=0;entryX=0;entryY=0.5;entryDx=0;entryDy=0;entryPerimeter=0;fontSize=16;" edge="1" parent="1" source="dG040CZCFqrrKlF94xfp-2" target="dG040CZCFqrrKlF94xfp-20">
          <mxGeometry relative="1" as="geometry" />
        </mxCell>
        <mxCell id="dG040CZCFqrrKlF94xfp-22" value="$$2\Delta t$$" style="whiteSpace=wrap;html=1;aspect=fixed;fillColor=#fff2cc;strokeColor=#d6b656;fontSize=14;" vertex="1" parent="1">
          <mxGeometry x="458" y="107.5" width="45" height="45" as="geometry" />
        </mxCell>
        <mxCell id="dG040CZCFqrrKlF94xfp-23" value="$$\Delta t^2$$" style="whiteSpace=wrap;html=1;aspect=fixed;fillColor=#fff2cc;strokeColor=#d6b656;fontSize=14;" vertex="1" parent="1">
          <mxGeometry x="462.5" y="254" width="45" height="45" as="geometry" />
        </mxCell>
        <mxCell id="dG040CZCFqrrKlF94xfp-94" value="" style="edgeStyle=orthogonalEdgeStyle;rounded=0;orthogonalLoop=1;jettySize=auto;html=1;" edge="1" parent="1" source="dG040CZCFqrrKlF94xfp-24" target="dG040CZCFqrrKlF94xfp-84">
          <mxGeometry relative="1" as="geometry" />
        </mxCell>
        <mxCell id="dG040CZCFqrrKlF94xfp-24" value="$$\frac{1}{3}\Delta t^3$$" style="whiteSpace=wrap;html=1;aspect=fixed;fillColor=#fff2cc;strokeColor=#d6b656;fontSize=14;" vertex="1" parent="1">
          <mxGeometry x="462.5" y="394" width="45" height="45" as="geometry" />
        </mxCell>
        <mxCell id="dG040CZCFqrrKlF94xfp-25" value="$$\frac{1}{12}\Delta t^4$$" style="whiteSpace=wrap;html=1;aspect=fixed;fillColor=#fff2cc;strokeColor=#d6b656;fontSize=13;" vertex="1" parent="1">
          <mxGeometry x="462.5" y="628.5" width="45" height="45" as="geometry" />
        </mxCell>
        <mxCell id="dG040CZCFqrrKlF94xfp-26" value="$$\frac{1}{6}\Delta t^5$$" style="whiteSpace=wrap;html=1;aspect=fixed;fillColor=#fff2cc;strokeColor=#d6b656;fontSize=14;" vertex="1" parent="1">
          <mxGeometry x="460" y="924" width="45" height="45" as="geometry" />
        </mxCell>
        <mxCell id="dG040CZCFqrrKlF94xfp-27" value="&lt;font style=&quot;font-size: 13px;&quot;&gt;$$\frac{1}{36}\Delta t^6$$&lt;/font&gt;" style="whiteSpace=wrap;html=1;aspect=fixed;fillColor=#fff2cc;strokeColor=#d6b656;fontSize=14;" vertex="1" parent="1">
          <mxGeometry x="460" y="1100" width="45" height="45" as="geometry" />
        </mxCell>
        <mxCell id="dG040CZCFqrrKlF94xfp-28" style="edgeStyle=orthogonalEdgeStyle;rounded=0;orthogonalLoop=1;jettySize=auto;html=1;entryX=0.5;entryY=0;entryDx=0;entryDy=0;entryPerimeter=0;fontSize=16;" edge="1" parent="1" source="dG040CZCFqrrKlF94xfp-22" target="dG040CZCFqrrKlF94xfp-20">
          <mxGeometry relative="1" as="geometry" />
        </mxCell>
        <mxCell id="dG040CZCFqrrKlF94xfp-52" style="edgeStyle=orthogonalEdgeStyle;rounded=0;orthogonalLoop=1;jettySize=auto;html=1;entryX=0;entryY=0.5;entryDx=0;entryDy=0;fontSize=16;" edge="1" parent="1" source="dG040CZCFqrrKlF94xfp-29" target="dG040CZCFqrrKlF94xfp-51">
          <mxGeometry relative="1" as="geometry" />
        </mxCell>
        <mxCell id="dG040CZCFqrrKlF94xfp-29" value="" style="verticalLabelPosition=bottom;verticalAlign=top;html=1;shape=mxgraph.flowchart.or;fontSize=16;fillColor=#d5e8d4;strokeColor=#82b366;" vertex="1" parent="1">
          <mxGeometry x="130" y="534" width="40" height="40" as="geometry" />
        </mxCell>
        <mxCell id="dG040CZCFqrrKlF94xfp-30" value="$$3$$" style="whiteSpace=wrap;html=1;aspect=fixed;fillColor=#ffe6cc;strokeColor=#d79b00;fontSize=16;" vertex="1" parent="1">
          <mxGeometry x="135" y="479" width="30" height="30" as="geometry" />
        </mxCell>
        <mxCell id="dG040CZCFqrrKlF94xfp-31" style="edgeStyle=orthogonalEdgeStyle;rounded=0;orthogonalLoop=1;jettySize=auto;html=1;entryX=0.5;entryY=0;entryDx=0;entryDy=0;entryPerimeter=0;fontSize=16;" edge="1" parent="1" source="dG040CZCFqrrKlF94xfp-30" target="dG040CZCFqrrKlF94xfp-29">
          <mxGeometry relative="1" as="geometry" />
        </mxCell>
        <mxCell id="dG040CZCFqrrKlF94xfp-32" style="edgeStyle=orthogonalEdgeStyle;rounded=0;orthogonalLoop=1;jettySize=auto;html=1;exitX=1;exitY=0.5;exitDx=0;exitDy=0;entryX=0;entryY=0.5;entryDx=0;entryDy=0;entryPerimeter=0;fontSize=16;" edge="1" parent="1" source="dG040CZCFqrrKlF94xfp-10" target="dG040CZCFqrrKlF94xfp-29">
          <mxGeometry relative="1" as="geometry" />
        </mxCell>
        <mxCell id="dG040CZCFqrrKlF94xfp-33" value="" style="verticalLabelPosition=bottom;verticalAlign=top;html=1;shape=mxgraph.flowchart.or;fontSize=16;fillColor=#d5e8d4;strokeColor=#82b366;" vertex="1" parent="1">
          <mxGeometry x="130" y="764" width="40" height="40" as="geometry" />
        </mxCell>
        <mxCell id="dG040CZCFqrrKlF94xfp-34" value="$$3$$" style="whiteSpace=wrap;html=1;aspect=fixed;fillColor=#ffe6cc;strokeColor=#d79b00;fontSize=16;" vertex="1" parent="1">
          <mxGeometry x="135" y="839" width="30" height="30" as="geometry" />
        </mxCell>
        <mxCell id="dG040CZCFqrrKlF94xfp-35" style="edgeStyle=orthogonalEdgeStyle;rounded=0;orthogonalLoop=1;jettySize=auto;html=1;entryX=0.5;entryY=1;entryDx=0;entryDy=0;entryPerimeter=0;fontSize=16;" edge="1" parent="1" source="dG040CZCFqrrKlF94xfp-34" target="dG040CZCFqrrKlF94xfp-33">
          <mxGeometry relative="1" as="geometry" />
        </mxCell>
        <mxCell id="dG040CZCFqrrKlF94xfp-36" style="edgeStyle=orthogonalEdgeStyle;rounded=0;orthogonalLoop=1;jettySize=auto;html=1;exitX=1;exitY=0.5;exitDx=0;exitDy=0;entryX=0;entryY=0.5;entryDx=0;entryDy=0;entryPerimeter=0;fontSize=16;" edge="1" parent="1" source="dG040CZCFqrrKlF94xfp-12" target="dG040CZCFqrrKlF94xfp-33">
          <mxGeometry relative="1" as="geometry" />
        </mxCell>
        <mxCell id="dG040CZCFqrrKlF94xfp-37" value="" style="verticalLabelPosition=bottom;verticalAlign=top;html=1;shape=mxgraph.flowchart.or;fontSize=16;fillColor=#d5e8d4;strokeColor=#82b366;" vertex="1" parent="1">
          <mxGeometry x="130" y="659" width="40" height="40" as="geometry" />
        </mxCell>
        <mxCell id="dG040CZCFqrrKlF94xfp-38" value="$$4$$" style="whiteSpace=wrap;html=1;aspect=fixed;fillColor=#ffe6cc;strokeColor=#d79b00;fontSize=16;" vertex="1" parent="1">
          <mxGeometry x="135" y="598.5" width="30" height="30" as="geometry" />
        </mxCell>
        <mxCell id="dG040CZCFqrrKlF94xfp-39" style="edgeStyle=orthogonalEdgeStyle;rounded=0;orthogonalLoop=1;jettySize=auto;html=1;entryX=0.5;entryY=0;entryDx=0;entryDy=0;entryPerimeter=0;fontSize=16;" edge="1" parent="1" source="dG040CZCFqrrKlF94xfp-38" target="dG040CZCFqrrKlF94xfp-37">
          <mxGeometry relative="1" as="geometry" />
        </mxCell>
        <mxCell id="dG040CZCFqrrKlF94xfp-40" style="edgeStyle=orthogonalEdgeStyle;rounded=0;orthogonalLoop=1;jettySize=auto;html=1;entryX=0;entryY=0.5;entryDx=0;entryDy=0;entryPerimeter=0;fontSize=16;" edge="1" parent="1" source="dG040CZCFqrrKlF94xfp-11" target="dG040CZCFqrrKlF94xfp-37">
          <mxGeometry relative="1" as="geometry" />
        </mxCell>
        <mxCell id="dG040CZCFqrrKlF94xfp-42" style="edgeStyle=orthogonalEdgeStyle;rounded=0;orthogonalLoop=1;jettySize=auto;html=1;entryX=0.5;entryY=0;entryDx=0;entryDy=0;entryPerimeter=0;fontSize=16;" edge="1" parent="1" source="dG040CZCFqrrKlF94xfp-15" target="dG040CZCFqrrKlF94xfp-19">
          <mxGeometry relative="1" as="geometry" />
        </mxCell>
        <mxCell id="dG040CZCFqrrKlF94xfp-43" style="edgeStyle=orthogonalEdgeStyle;rounded=0;orthogonalLoop=1;jettySize=auto;html=1;exitX=1;exitY=0.5;exitDx=0;exitDy=0;entryX=0.5;entryY=1;entryDx=0;entryDy=0;entryPerimeter=0;fontSize=16;" edge="1" parent="1" source="dG040CZCFqrrKlF94xfp-16" target="dG040CZCFqrrKlF94xfp-19">
          <mxGeometry relative="1" as="geometry" />
        </mxCell>
        <mxCell id="dG040CZCFqrrKlF94xfp-48" style="edgeStyle=orthogonalEdgeStyle;rounded=0;orthogonalLoop=1;jettySize=auto;html=1;entryX=0;entryY=0.5;entryDx=0;entryDy=0;fontSize=16;" edge="1" parent="1" source="dG040CZCFqrrKlF94xfp-44" target="dG040CZCFqrrKlF94xfp-18">
          <mxGeometry relative="1" as="geometry" />
        </mxCell>
        <mxCell id="dG040CZCFqrrKlF94xfp-44" value="" style="verticalLabelPosition=bottom;verticalAlign=top;html=1;shape=mxgraph.flowchart.summing_function;fontSize=16;fillColor=#f5f5f5;fontColor=#333333;strokeColor=#666666;" vertex="1" parent="1">
          <mxGeometry x="-55" y="375" width="40" height="40" as="geometry" />
        </mxCell>
        <mxCell id="dG040CZCFqrrKlF94xfp-45" style="edgeStyle=orthogonalEdgeStyle;rounded=0;orthogonalLoop=1;jettySize=auto;html=1;entryX=0.5;entryY=0;entryDx=0;entryDy=0;entryPerimeter=0;fontSize=16;exitX=1;exitY=0.5;exitDx=0;exitDy=0;" edge="1" parent="1" target="dG040CZCFqrrKlF94xfp-44" source="dG040CZCFqrrKlF94xfp-3">
          <mxGeometry relative="1" as="geometry">
            <mxPoint x="-85" y="340" as="sourcePoint" />
          </mxGeometry>
        </mxCell>
        <mxCell id="dG040CZCFqrrKlF94xfp-46" style="edgeStyle=orthogonalEdgeStyle;rounded=0;orthogonalLoop=1;jettySize=auto;html=1;exitX=1;exitY=0.5;exitDx=0;exitDy=0;entryX=0.5;entryY=1;entryDx=0;entryDy=0;entryPerimeter=0;fontSize=16;" edge="1" parent="1" target="dG040CZCFqrrKlF94xfp-44" source="dG040CZCFqrrKlF94xfp-4">
          <mxGeometry relative="1" as="geometry">
            <mxPoint x="-85" y="450" as="sourcePoint" />
          </mxGeometry>
        </mxCell>
        <mxCell id="dG040CZCFqrrKlF94xfp-49" value="$$\mathbb{A}_4$$" style="whiteSpace=wrap;html=1;aspect=fixed;fontSize=16;fillColor=#bac8d3;strokeColor=#23445d;" vertex="1" parent="1">
          <mxGeometry x="30" y="896.5" width="45" height="45" as="geometry" />
        </mxCell>
        <mxCell id="dG040CZCFqrrKlF94xfp-50" style="edgeStyle=orthogonalEdgeStyle;rounded=0;orthogonalLoop=1;jettySize=auto;html=1;entryX=0;entryY=0.5;entryDx=0;entryDy=0;fontSize=16;" edge="1" parent="1" target="dG040CZCFqrrKlF94xfp-49">
          <mxGeometry relative="1" as="geometry">
            <mxPoint x="-10" y="919" as="sourcePoint" />
          </mxGeometry>
        </mxCell>
        <mxCell id="dG040CZCFqrrKlF94xfp-51" value="$$\mathbb{M}_1$$" style="whiteSpace=wrap;html=1;aspect=fixed;fontSize=16;fillColor=#b0e3e6;strokeColor=#0e8088;" vertex="1" parent="1">
          <mxGeometry x="215" y="531.5" width="45" height="45" as="geometry" />
        </mxCell>
        <mxCell id="dG040CZCFqrrKlF94xfp-53" style="edgeStyle=orthogonalEdgeStyle;rounded=0;orthogonalLoop=1;jettySize=auto;html=1;entryX=0;entryY=0.5;entryDx=0;entryDy=0;fontSize=16;" edge="1" parent="1" target="dG040CZCFqrrKlF94xfp-54">
          <mxGeometry relative="1" as="geometry">
            <mxPoint x="170" y="679" as="sourcePoint" />
          </mxGeometry>
        </mxCell>
        <mxCell id="dG040CZCFqrrKlF94xfp-54" value="$$\mathbb{M}_2$$" style="whiteSpace=wrap;html=1;aspect=fixed;fontSize=16;fillColor=#b0e3e6;strokeColor=#0e8088;" vertex="1" parent="1">
          <mxGeometry x="215" y="656.5" width="45" height="45" as="geometry" />
        </mxCell>
        <mxCell id="dG040CZCFqrrKlF94xfp-55" style="edgeStyle=orthogonalEdgeStyle;rounded=0;orthogonalLoop=1;jettySize=auto;html=1;entryX=0;entryY=0.5;entryDx=0;entryDy=0;fontSize=16;" edge="1" parent="1" target="dG040CZCFqrrKlF94xfp-56">
          <mxGeometry relative="1" as="geometry">
            <mxPoint x="170" y="784" as="sourcePoint" />
          </mxGeometry>
        </mxCell>
        <mxCell id="dG040CZCFqrrKlF94xfp-56" value="$$\mathbb{M}_3$$" style="whiteSpace=wrap;html=1;aspect=fixed;fontSize=16;fillColor=#b0e3e6;strokeColor=#0e8088;" vertex="1" parent="1">
          <mxGeometry x="215" y="761.5" width="45" height="45" as="geometry" />
        </mxCell>
        <mxCell id="dG040CZCFqrrKlF94xfp-59" value="&lt;font style=&quot;font-size: 16px;&quot;&gt;$$\mathbb{A}_2$$&lt;/font&gt;" style="whiteSpace=wrap;html=1;aspect=fixed;fontSize=16;fillColor=#bac8d3;strokeColor=#23445d;" vertex="1" parent="1">
          <mxGeometry x="376" y="481.5" width="45" height="45" as="geometry" />
        </mxCell>
        <mxCell id="dG040CZCFqrrKlF94xfp-60" style="edgeStyle=orthogonalEdgeStyle;rounded=0;orthogonalLoop=1;jettySize=auto;html=1;entryX=0;entryY=0.5;entryDx=0;entryDy=0;fontSize=16;" edge="1" parent="1" source="dG040CZCFqrrKlF94xfp-61" target="dG040CZCFqrrKlF94xfp-59">
          <mxGeometry relative="1" as="geometry" />
        </mxCell>
        <mxCell id="dG040CZCFqrrKlF94xfp-61" value="" style="verticalLabelPosition=bottom;verticalAlign=top;html=1;shape=mxgraph.flowchart.summing_function;fontSize=16;fillColor=#f5f5f5;fontColor=#333333;strokeColor=#666666;" vertex="1" parent="1">
          <mxGeometry x="296" y="484" width="40" height="40" as="geometry" />
        </mxCell>
        <mxCell id="dG040CZCFqrrKlF94xfp-62" style="edgeStyle=orthogonalEdgeStyle;rounded=0;orthogonalLoop=1;jettySize=auto;html=1;entryX=0.5;entryY=0;entryDx=0;entryDy=0;entryPerimeter=0;" edge="1" parent="1" source="dG040CZCFqrrKlF94xfp-9" target="dG040CZCFqrrKlF94xfp-61">
          <mxGeometry relative="1" as="geometry" />
        </mxCell>
        <mxCell id="dG040CZCFqrrKlF94xfp-63" style="edgeStyle=orthogonalEdgeStyle;rounded=0;orthogonalLoop=1;jettySize=auto;html=1;exitX=1;exitY=0.5;exitDx=0;exitDy=0;entryX=0.5;entryY=1;entryDx=0;entryDy=0;entryPerimeter=0;" edge="1" parent="1" source="dG040CZCFqrrKlF94xfp-51" target="dG040CZCFqrrKlF94xfp-61">
          <mxGeometry relative="1" as="geometry" />
        </mxCell>
        <mxCell id="dG040CZCFqrrKlF94xfp-64" value="&lt;font style=&quot;font-size: 16px;&quot;&gt;$$\mathbb{A}_3$$&lt;/font&gt;" style="whiteSpace=wrap;html=1;aspect=fixed;fontSize=16;fillColor=#bac8d3;strokeColor=#23445d;" vertex="1" parent="1">
          <mxGeometry x="375.5" y="713.5" width="45" height="45" as="geometry" />
        </mxCell>
        <mxCell id="dG040CZCFqrrKlF94xfp-65" style="edgeStyle=orthogonalEdgeStyle;rounded=0;orthogonalLoop=1;jettySize=auto;html=1;entryX=0;entryY=0.5;entryDx=0;entryDy=0;fontSize=16;" edge="1" parent="1" source="dG040CZCFqrrKlF94xfp-66" target="dG040CZCFqrrKlF94xfp-64">
          <mxGeometry relative="1" as="geometry" />
        </mxCell>
        <mxCell id="dG040CZCFqrrKlF94xfp-66" value="" style="verticalLabelPosition=bottom;verticalAlign=top;html=1;shape=mxgraph.flowchart.summing_function;fontSize=16;fillColor=#f5f5f5;fontColor=#333333;strokeColor=#666666;" vertex="1" parent="1">
          <mxGeometry x="295.5" y="716" width="40" height="40" as="geometry" />
        </mxCell>
        <mxCell id="dG040CZCFqrrKlF94xfp-67" style="edgeStyle=orthogonalEdgeStyle;rounded=0;orthogonalLoop=1;jettySize=auto;html=1;entryX=0.5;entryY=0;entryDx=0;entryDy=0;entryPerimeter=0;" edge="1" parent="1" target="dG040CZCFqrrKlF94xfp-66">
          <mxGeometry relative="1" as="geometry">
            <mxPoint x="259.5" y="684" as="sourcePoint" />
          </mxGeometry>
        </mxCell>
        <mxCell id="dG040CZCFqrrKlF94xfp-68" style="edgeStyle=orthogonalEdgeStyle;rounded=0;orthogonalLoop=1;jettySize=auto;html=1;exitX=1;exitY=0.5;exitDx=0;exitDy=0;entryX=0.5;entryY=1;entryDx=0;entryDy=0;entryPerimeter=0;" edge="1" parent="1" target="dG040CZCFqrrKlF94xfp-66">
          <mxGeometry relative="1" as="geometry">
            <mxPoint x="259.5" y="786" as="sourcePoint" />
          </mxGeometry>
        </mxCell>
        <mxCell id="dG040CZCFqrrKlF94xfp-69" value="&lt;font style=&quot;font-size: 16px;&quot;&gt;注：&lt;/font&gt;" style="text;html=1;align=center;verticalAlign=middle;resizable=0;points=[];autosize=1;strokeColor=none;fillColor=none;" vertex="1" parent="1">
          <mxGeometry x="-120" y="205" width="60" height="30" as="geometry" />
        </mxCell>
        <mxCell id="dG040CZCFqrrKlF94xfp-70" value="&lt;font style=&quot;font-size: 16px;&quot;&gt;$$\mathbb{X}_1$$&lt;/font&gt;" style="whiteSpace=wrap;html=1;aspect=fixed;fontSize=16;fillColor=#dae8fc;strokeColor=#6c8ebf;" vertex="1" parent="1">
          <mxGeometry x="545.5" y="190" width="45" height="45" as="geometry" />
        </mxCell>
        <mxCell id="dG040CZCFqrrKlF94xfp-77" style="edgeStyle=orthogonalEdgeStyle;rounded=0;orthogonalLoop=1;jettySize=auto;html=1;entryX=0;entryY=0.5;entryDx=0;entryDy=0;" edge="1" parent="1" source="dG040CZCFqrrKlF94xfp-78" target="dG040CZCFqrrKlF94xfp-80">
          <mxGeometry relative="1" as="geometry" />
        </mxCell>
        <mxCell id="dG040CZCFqrrKlF94xfp-78" value="" style="verticalLabelPosition=bottom;verticalAlign=top;html=1;shape=mxgraph.flowchart.or;fontSize=16;fillColor=#d5e8d4;strokeColor=#82b366;" vertex="1" parent="1">
          <mxGeometry x="465" y="339" width="40" height="40" as="geometry" />
        </mxCell>
        <mxCell id="dG040CZCFqrrKlF94xfp-79" style="edgeStyle=orthogonalEdgeStyle;rounded=0;orthogonalLoop=1;jettySize=auto;html=1;entryX=0.5;entryY=0;entryDx=0;entryDy=0;entryPerimeter=0;fontSize=16;" edge="1" parent="1" target="dG040CZCFqrrKlF94xfp-78">
          <mxGeometry relative="1" as="geometry">
            <mxPoint x="485" y="299" as="sourcePoint" />
          </mxGeometry>
        </mxCell>
        <mxCell id="dG040CZCFqrrKlF94xfp-80" value="&lt;font style=&quot;font-size: 16px;&quot;&gt;$$\mathbb{X}_2$$&lt;/font&gt;" style="whiteSpace=wrap;html=1;aspect=fixed;fontSize=16;fillColor=#dae8fc;strokeColor=#6c8ebf;" vertex="1" parent="1">
          <mxGeometry x="550" y="336.5" width="45" height="45" as="geometry" />
        </mxCell>
        <mxCell id="dG040CZCFqrrKlF94xfp-83" style="edgeStyle=orthogonalEdgeStyle;rounded=0;orthogonalLoop=1;jettySize=auto;html=1;entryX=0;entryY=0.5;entryDx=0;entryDy=0;" edge="1" parent="1" source="dG040CZCFqrrKlF94xfp-84" target="dG040CZCFqrrKlF94xfp-86">
          <mxGeometry relative="1" as="geometry" />
        </mxCell>
        <mxCell id="dG040CZCFqrrKlF94xfp-84" value="" style="verticalLabelPosition=bottom;verticalAlign=top;html=1;shape=mxgraph.flowchart.or;fontSize=16;fillColor=#d5e8d4;strokeColor=#82b366;" vertex="1" parent="1">
          <mxGeometry x="465" y="484" width="40" height="40" as="geometry" />
        </mxCell>
        <mxCell id="dG040CZCFqrrKlF94xfp-86" value="&lt;font style=&quot;font-size: 16px;&quot;&gt;$$\mathbb{X}_3$$&lt;/font&gt;" style="whiteSpace=wrap;html=1;aspect=fixed;fontSize=16;fillColor=#dae8fc;strokeColor=#6c8ebf;" vertex="1" parent="1">
          <mxGeometry x="550" y="481.5" width="45" height="45" as="geometry" />
        </mxCell>
        <mxCell id="dG040CZCFqrrKlF94xfp-87" style="edgeStyle=orthogonalEdgeStyle;rounded=0;orthogonalLoop=1;jettySize=auto;html=1;entryX=0;entryY=0.5;entryDx=0;entryDy=0;entryPerimeter=0;" edge="1" parent="1" target="dG040CZCFqrrKlF94xfp-84">
          <mxGeometry relative="1" as="geometry">
            <mxPoint x="420.5" y="504.0000000000002" as="sourcePoint" />
          </mxGeometry>
        </mxCell>
        <mxCell id="dG040CZCFqrrKlF94xfp-89" style="edgeStyle=orthogonalEdgeStyle;rounded=0;orthogonalLoop=1;jettySize=auto;html=1;entryX=0;entryY=0.5;entryDx=0;entryDy=0;" edge="1" parent="1" source="dG040CZCFqrrKlF94xfp-90" target="dG040CZCFqrrKlF94xfp-91">
          <mxGeometry relative="1" as="geometry" />
        </mxCell>
        <mxCell id="dG040CZCFqrrKlF94xfp-90" value="" style="verticalLabelPosition=bottom;verticalAlign=top;html=1;shape=mxgraph.flowchart.or;fontSize=16;fillColor=#d5e8d4;strokeColor=#82b366;" vertex="1" parent="1">
          <mxGeometry x="465" y="716" width="40" height="40" as="geometry" />
        </mxCell>
        <mxCell id="dG040CZCFqrrKlF94xfp-91" value="&lt;font style=&quot;font-size: 16px;&quot;&gt;$$\mathbb{X}_4$$&lt;/font&gt;" style="whiteSpace=wrap;html=1;aspect=fixed;fontSize=16;fillColor=#dae8fc;strokeColor=#6c8ebf;" vertex="1" parent="1">
          <mxGeometry x="550" y="713.5" width="45" height="45" as="geometry" />
        </mxCell>
        <mxCell id="dG040CZCFqrrKlF94xfp-92" style="edgeStyle=orthogonalEdgeStyle;rounded=0;orthogonalLoop=1;jettySize=auto;html=1;entryX=0;entryY=0.5;entryDx=0;entryDy=0;entryPerimeter=0;" edge="1" parent="1" source="dG040CZCFqrrKlF94xfp-64" target="dG040CZCFqrrKlF94xfp-90">
          <mxGeometry relative="1" as="geometry" />
        </mxCell>
        <mxCell id="dG040CZCFqrrKlF94xfp-103" style="edgeStyle=orthogonalEdgeStyle;rounded=0;orthogonalLoop=1;jettySize=auto;html=1;entryX=0;entryY=0.5;entryDx=0;entryDy=0;" edge="1" parent="1" source="dG040CZCFqrrKlF94xfp-104" target="dG040CZCFqrrKlF94xfp-105">
          <mxGeometry relative="1" as="geometry" />
        </mxCell>
        <mxCell id="dG040CZCFqrrKlF94xfp-104" value="" style="verticalLabelPosition=bottom;verticalAlign=top;html=1;shape=mxgraph.flowchart.or;fontSize=16;fillColor=#d5e8d4;strokeColor=#82b366;" vertex="1" parent="1">
          <mxGeometry x="462.5" y="841.5" width="40" height="40" as="geometry" />
        </mxCell>
        <mxCell id="dG040CZCFqrrKlF94xfp-105" value="&lt;font style=&quot;font-size: 16px;&quot;&gt;$$\mathbb{X}_5$$&lt;/font&gt;" style="whiteSpace=wrap;html=1;aspect=fixed;fontSize=16;fillColor=#dae8fc;strokeColor=#6c8ebf;" vertex="1" parent="1">
          <mxGeometry x="550" y="839" width="45" height="45" as="geometry" />
        </mxCell>
        <mxCell id="dG040CZCFqrrKlF94xfp-107" value="" style="edgeStyle=orthogonalEdgeStyle;rounded=0;orthogonalLoop=1;jettySize=auto;html=1;exitX=0.5;exitY=1;exitDx=0;exitDy=0;" edge="1" parent="1" source="dG040CZCFqrrKlF94xfp-25">
          <mxGeometry relative="1" as="geometry">
            <mxPoint x="515" y="684" as="sourcePoint" />
            <mxPoint x="485" y="714" as="targetPoint" />
          </mxGeometry>
        </mxCell>
        <mxCell id="dG040CZCFqrrKlF94xfp-109" style="edgeStyle=orthogonalEdgeStyle;rounded=0;orthogonalLoop=1;jettySize=auto;html=1;entryX=0;entryY=0.5;entryDx=0;entryDy=0;entryPerimeter=0;" edge="1" parent="1" source="dG040CZCFqrrKlF94xfp-13" target="dG040CZCFqrrKlF94xfp-104">
          <mxGeometry relative="1" as="geometry" />
        </mxCell>
        <mxCell id="dG040CZCFqrrKlF94xfp-110" style="edgeStyle=orthogonalEdgeStyle;rounded=0;orthogonalLoop=1;jettySize=auto;html=1;entryX=0.5;entryY=1;entryDx=0;entryDy=0;entryPerimeter=0;" edge="1" parent="1" source="dG040CZCFqrrKlF94xfp-26" target="dG040CZCFqrrKlF94xfp-104">
          <mxGeometry relative="1" as="geometry" />
        </mxCell>
        <mxCell id="dG040CZCFqrrKlF94xfp-111" style="edgeStyle=orthogonalEdgeStyle;rounded=0;orthogonalLoop=1;jettySize=auto;html=1;entryX=0;entryY=0.5;entryDx=0;entryDy=0;" edge="1" parent="1" source="dG040CZCFqrrKlF94xfp-112" target="dG040CZCFqrrKlF94xfp-113">
          <mxGeometry relative="1" as="geometry" />
        </mxCell>
        <mxCell id="dG040CZCFqrrKlF94xfp-112" value="" style="verticalLabelPosition=bottom;verticalAlign=top;html=1;shape=mxgraph.flowchart.or;fontSize=16;fillColor=#d5e8d4;strokeColor=#82b366;" vertex="1" parent="1">
          <mxGeometry x="462.5" y="1022.5" width="40" height="40" as="geometry" />
        </mxCell>
        <mxCell id="dG040CZCFqrrKlF94xfp-113" value="&lt;font style=&quot;font-size: 16px;&quot;&gt;$$\mathbb{X}_6$$&lt;/font&gt;" style="whiteSpace=wrap;html=1;aspect=fixed;fontSize=16;fillColor=#dae8fc;strokeColor=#6c8ebf;" vertex="1" parent="1">
          <mxGeometry x="550" y="1020" width="45" height="45" as="geometry" />
        </mxCell>
        <mxCell id="dG040CZCFqrrKlF94xfp-114" style="edgeStyle=orthogonalEdgeStyle;rounded=0;orthogonalLoop=1;jettySize=auto;html=1;entryX=0;entryY=0.5;entryDx=0;entryDy=0;entryPerimeter=0;" edge="1" parent="1" source="dG040CZCFqrrKlF94xfp-14" target="dG040CZCFqrrKlF94xfp-112">
          <mxGeometry relative="1" as="geometry" />
        </mxCell>
        <mxCell id="dG040CZCFqrrKlF94xfp-115" style="edgeStyle=orthogonalEdgeStyle;rounded=0;orthogonalLoop=1;jettySize=auto;html=1;entryX=0.5;entryY=1;entryDx=0;entryDy=0;entryPerimeter=0;" edge="1" parent="1" source="dG040CZCFqrrKlF94xfp-27" target="dG040CZCFqrrKlF94xfp-112">
          <mxGeometry relative="1" as="geometry" />
        </mxCell>
        <mxCell id="dG040CZCFqrrKlF94xfp-116" value="&lt;font style=&quot;font-size: 16px;&quot;&gt;$$\mathbb{T}_1$$&lt;/font&gt;" style="whiteSpace=wrap;html=1;aspect=fixed;fontSize=16;fillColor=#bac8d3;strokeColor=#23445d;" vertex="1" parent="1">
          <mxGeometry x="700.5" y="137.5" width="45" height="45" as="geometry" />
        </mxCell>
        <mxCell id="dG040CZCFqrrKlF94xfp-117" style="edgeStyle=orthogonalEdgeStyle;rounded=0;orthogonalLoop=1;jettySize=auto;html=1;entryX=0;entryY=0.5;entryDx=0;entryDy=0;fontSize=16;" edge="1" parent="1" source="dG040CZCFqrrKlF94xfp-118" target="dG040CZCFqrrKlF94xfp-116">
          <mxGeometry relative="1" as="geometry" />
        </mxCell>
        <mxCell id="dG040CZCFqrrKlF94xfp-118" value="" style="verticalLabelPosition=bottom;verticalAlign=top;html=1;shape=mxgraph.flowchart.summing_function;fontSize=16;fillColor=#f5f5f5;fontColor=#333333;strokeColor=#666666;" vertex="1" parent="1">
          <mxGeometry x="620.5" y="140" width="40" height="40" as="geometry" />
        </mxCell>
        <mxCell id="dG040CZCFqrrKlF94xfp-120" style="edgeStyle=orthogonalEdgeStyle;rounded=0;orthogonalLoop=1;jettySize=auto;html=1;entryX=0.5;entryY=1;entryDx=0;entryDy=0;entryPerimeter=0;" edge="1" parent="1" source="dG040CZCFqrrKlF94xfp-70" target="dG040CZCFqrrKlF94xfp-118">
          <mxGeometry relative="1" as="geometry" />
        </mxCell>
        <mxCell id="dG040CZCFqrrKlF94xfp-121" value="&lt;font style=&quot;font-size: 16px;&quot;&gt;$$\mathbb{T}_2$$&lt;/font&gt;" style="whiteSpace=wrap;html=1;aspect=fixed;fontSize=16;fillColor=#bac8d3;strokeColor=#23445d;" vertex="1" parent="1">
          <mxGeometry x="697" y="419" width="45" height="45" as="geometry" />
        </mxCell>
        <mxCell id="dG040CZCFqrrKlF94xfp-129" style="edgeStyle=orthogonalEdgeStyle;rounded=0;orthogonalLoop=1;jettySize=auto;html=1;entryX=0;entryY=0.5;entryDx=0;entryDy=0;" edge="1" parent="1" source="dG040CZCFqrrKlF94xfp-123" target="dG040CZCFqrrKlF94xfp-121">
          <mxGeometry relative="1" as="geometry" />
        </mxCell>
        <mxCell id="dG040CZCFqrrKlF94xfp-123" value="" style="verticalLabelPosition=bottom;verticalAlign=top;html=1;shape=mxgraph.flowchart.summing_function;fontSize=16;fillColor=#f5f5f5;fontColor=#333333;strokeColor=#666666;" vertex="1" parent="1">
          <mxGeometry x="617" y="421.5" width="40" height="40" as="geometry" />
        </mxCell>
        <mxCell id="dG040CZCFqrrKlF94xfp-124" style="edgeStyle=orthogonalEdgeStyle;rounded=0;orthogonalLoop=1;jettySize=auto;html=1;entryX=0.5;entryY=0;entryDx=0;entryDy=0;entryPerimeter=0;" edge="1" parent="1" source="dG040CZCFqrrKlF94xfp-80" target="dG040CZCFqrrKlF94xfp-123">
          <mxGeometry relative="1" as="geometry" />
        </mxCell>
        <mxCell id="dG040CZCFqrrKlF94xfp-125" style="edgeStyle=orthogonalEdgeStyle;rounded=0;orthogonalLoop=1;jettySize=auto;html=1;entryX=0.5;entryY=1;entryDx=0;entryDy=0;entryPerimeter=0;" edge="1" parent="1" source="dG040CZCFqrrKlF94xfp-86" target="dG040CZCFqrrKlF94xfp-123">
          <mxGeometry relative="1" as="geometry" />
        </mxCell>
        <mxCell id="dG040CZCFqrrKlF94xfp-126" value="&lt;font style=&quot;font-size: 16px;&quot;&gt;$$\mathbb{T}_3$$&lt;/font&gt;" style="whiteSpace=wrap;html=1;aspect=fixed;fontSize=16;fillColor=#bac8d3;strokeColor=#23445d;" vertex="1" parent="1">
          <mxGeometry x="697" y="774" width="45" height="45" as="geometry" />
        </mxCell>
        <mxCell id="dG040CZCFqrrKlF94xfp-127" style="edgeStyle=orthogonalEdgeStyle;rounded=0;orthogonalLoop=1;jettySize=auto;html=1;entryX=0;entryY=0.5;entryDx=0;entryDy=0;fontSize=16;" edge="1" parent="1" source="dG040CZCFqrrKlF94xfp-128" target="dG040CZCFqrrKlF94xfp-126">
          <mxGeometry relative="1" as="geometry" />
        </mxCell>
        <mxCell id="dG040CZCFqrrKlF94xfp-128" value="" style="verticalLabelPosition=bottom;verticalAlign=top;html=1;shape=mxgraph.flowchart.summing_function;fontSize=16;fillColor=#f5f5f5;fontColor=#333333;strokeColor=#666666;" vertex="1" parent="1">
          <mxGeometry x="617" y="776.5" width="40" height="40" as="geometry" />
        </mxCell>
        <mxCell id="dG040CZCFqrrKlF94xfp-130" style="edgeStyle=orthogonalEdgeStyle;rounded=0;orthogonalLoop=1;jettySize=auto;html=1;entryX=0.5;entryY=0;entryDx=0;entryDy=0;entryPerimeter=0;" edge="1" parent="1" source="dG040CZCFqrrKlF94xfp-91" target="dG040CZCFqrrKlF94xfp-128">
          <mxGeometry relative="1" as="geometry" />
        </mxCell>
        <mxCell id="dG040CZCFqrrKlF94xfp-131" style="edgeStyle=orthogonalEdgeStyle;rounded=0;orthogonalLoop=1;jettySize=auto;html=1;entryX=0.5;entryY=1;entryDx=0;entryDy=0;entryPerimeter=0;" edge="1" parent="1" source="dG040CZCFqrrKlF94xfp-105" target="dG040CZCFqrrKlF94xfp-128">
          <mxGeometry relative="1" as="geometry" />
        </mxCell>
        <mxCell id="dG040CZCFqrrKlF94xfp-132" value="&lt;font style=&quot;font-size: 16px;&quot;&gt;$$\mathbb{T}_3$$&lt;/font&gt;" style="whiteSpace=wrap;html=1;aspect=fixed;fontSize=16;fillColor=#bac8d3;strokeColor=#23445d;" vertex="1" parent="1">
          <mxGeometry x="697" y="969" width="45" height="45" as="geometry" />
        </mxCell>
        <mxCell id="dG040CZCFqrrKlF94xfp-133" style="edgeStyle=orthogonalEdgeStyle;rounded=0;orthogonalLoop=1;jettySize=auto;html=1;entryX=0;entryY=0.5;entryDx=0;entryDy=0;fontSize=16;" edge="1" parent="1" source="dG040CZCFqrrKlF94xfp-134" target="dG040CZCFqrrKlF94xfp-132">
          <mxGeometry relative="1" as="geometry" />
        </mxCell>
        <mxCell id="dG040CZCFqrrKlF94xfp-134" value="" style="verticalLabelPosition=bottom;verticalAlign=top;html=1;shape=mxgraph.flowchart.summing_function;fontSize=16;fillColor=#f5f5f5;fontColor=#333333;strokeColor=#666666;" vertex="1" parent="1">
          <mxGeometry x="617" y="971.5" width="40" height="40" as="geometry" />
        </mxCell>
        <mxCell id="dG040CZCFqrrKlF94xfp-138" style="edgeStyle=orthogonalEdgeStyle;rounded=0;orthogonalLoop=1;jettySize=auto;html=1;entryX=0.5;entryY=1;entryDx=0;entryDy=0;entryPerimeter=0;" edge="1" parent="1" source="dG040CZCFqrrKlF94xfp-113" target="dG040CZCFqrrKlF94xfp-134">
          <mxGeometry relative="1" as="geometry" />
        </mxCell>
        <mxCell id="dG040CZCFqrrKlF94xfp-140" value="&lt;font style=&quot;font-size: 16px;&quot;&gt;$$\mathbb{T}_5$$&lt;/font&gt;" style="whiteSpace=wrap;html=1;aspect=fixed;fontSize=16;fillColor=#bac8d3;strokeColor=#23445d;" vertex="1" parent="1">
          <mxGeometry x="865" y="277.5" width="45" height="45" as="geometry" />
        </mxCell>
        <mxCell id="dG040CZCFqrrKlF94xfp-141" style="edgeStyle=orthogonalEdgeStyle;rounded=0;orthogonalLoop=1;jettySize=auto;html=1;entryX=0;entryY=0.5;entryDx=0;entryDy=0;" edge="1" parent="1" source="dG040CZCFqrrKlF94xfp-142" target="dG040CZCFqrrKlF94xfp-140">
          <mxGeometry relative="1" as="geometry" />
        </mxCell>
        <mxCell id="dG040CZCFqrrKlF94xfp-142" value="" style="verticalLabelPosition=bottom;verticalAlign=top;html=1;shape=mxgraph.flowchart.summing_function;fontSize=16;fillColor=#f5f5f5;fontColor=#333333;strokeColor=#666666;" vertex="1" parent="1">
          <mxGeometry x="785" y="280" width="40" height="40" as="geometry" />
        </mxCell>
        <mxCell id="dG040CZCFqrrKlF94xfp-143" style="edgeStyle=orthogonalEdgeStyle;rounded=0;orthogonalLoop=1;jettySize=auto;html=1;entryX=0.5;entryY=0;entryDx=0;entryDy=0;entryPerimeter=0;" edge="1" parent="1" source="dG040CZCFqrrKlF94xfp-116" target="dG040CZCFqrrKlF94xfp-142">
          <mxGeometry relative="1" as="geometry" />
        </mxCell>
        <mxCell id="dG040CZCFqrrKlF94xfp-144" style="edgeStyle=orthogonalEdgeStyle;rounded=0;orthogonalLoop=1;jettySize=auto;html=1;entryX=0.5;entryY=1;entryDx=0;entryDy=0;entryPerimeter=0;" edge="1" parent="1" source="dG040CZCFqrrKlF94xfp-121" target="dG040CZCFqrrKlF94xfp-142">
          <mxGeometry relative="1" as="geometry" />
        </mxCell>
        <mxCell id="dG040CZCFqrrKlF94xfp-145" value="&lt;font style=&quot;font-size: 16px;&quot;&gt;$$\mathbb{T}_6$$&lt;/font&gt;" style="whiteSpace=wrap;html=1;aspect=fixed;fontSize=16;fillColor=#bac8d3;strokeColor=#23445d;" vertex="1" parent="1">
          <mxGeometry x="865" y="879" width="45" height="45" as="geometry" />
        </mxCell>
        <mxCell id="dG040CZCFqrrKlF94xfp-146" style="edgeStyle=orthogonalEdgeStyle;rounded=0;orthogonalLoop=1;jettySize=auto;html=1;entryX=0;entryY=0.5;entryDx=0;entryDy=0;" edge="1" parent="1" source="dG040CZCFqrrKlF94xfp-147" target="dG040CZCFqrrKlF94xfp-145">
          <mxGeometry relative="1" as="geometry" />
        </mxCell>
        <mxCell id="dG040CZCFqrrKlF94xfp-147" value="" style="verticalLabelPosition=bottom;verticalAlign=top;html=1;shape=mxgraph.flowchart.summing_function;fontSize=16;fillColor=#f5f5f5;fontColor=#333333;strokeColor=#666666;" vertex="1" parent="1">
          <mxGeometry x="785" y="881.5" width="40" height="40" as="geometry" />
        </mxCell>
        <mxCell id="dG040CZCFqrrKlF94xfp-148" style="edgeStyle=orthogonalEdgeStyle;rounded=0;orthogonalLoop=1;jettySize=auto;html=1;entryX=0.5;entryY=1;entryDx=0;entryDy=0;entryPerimeter=0;" edge="1" parent="1" target="dG040CZCFqrrKlF94xfp-147">
          <mxGeometry relative="1" as="geometry">
            <mxPoint x="742" y="991" as="sourcePoint" />
          </mxGeometry>
        </mxCell>
        <mxCell id="dG040CZCFqrrKlF94xfp-149" style="edgeStyle=orthogonalEdgeStyle;rounded=0;orthogonalLoop=1;jettySize=auto;html=1;entryX=0.5;entryY=0;entryDx=0;entryDy=0;entryPerimeter=0;" edge="1" parent="1" source="dG040CZCFqrrKlF94xfp-126" target="dG040CZCFqrrKlF94xfp-147">
          <mxGeometry relative="1" as="geometry" />
        </mxCell>
        <mxCell id="dG040CZCFqrrKlF94xfp-150" value="&lt;font style=&quot;font-size: 16px;&quot;&gt;$$a$$&lt;/font&gt;" style="whiteSpace=wrap;html=1;aspect=fixed;fontSize=16;fillColor=#B0E3E6;strokeColor=#BABABA;" vertex="1" parent="1">
          <mxGeometry x="1020" y="562" width="45" height="45" as="geometry" />
        </mxCell>
        <mxCell id="dG040CZCFqrrKlF94xfp-151" style="edgeStyle=orthogonalEdgeStyle;rounded=0;orthogonalLoop=1;jettySize=auto;html=1;entryX=0;entryY=0.5;entryDx=0;entryDy=0;" edge="1" parent="1" source="dG040CZCFqrrKlF94xfp-152" target="dG040CZCFqrrKlF94xfp-150">
          <mxGeometry relative="1" as="geometry" />
        </mxCell>
        <mxCell id="dG040CZCFqrrKlF94xfp-152" value="" style="verticalLabelPosition=bottom;verticalAlign=top;html=1;shape=mxgraph.flowchart.summing_function;fontSize=16;fillColor=#f5f5f5;fontColor=#333333;strokeColor=#666666;" vertex="1" parent="1">
          <mxGeometry x="930" y="564.5" width="40" height="40" as="geometry" />
        </mxCell>
        <mxCell id="dG040CZCFqrrKlF94xfp-153" style="edgeStyle=orthogonalEdgeStyle;rounded=0;orthogonalLoop=1;jettySize=auto;html=1;entryX=0.5;entryY=1;entryDx=0;entryDy=0;entryPerimeter=0;" edge="1" parent="1" target="dG040CZCFqrrKlF94xfp-152">
          <mxGeometry relative="1" as="geometry">
            <mxPoint x="910" y="903" as="sourcePoint" />
          </mxGeometry>
        </mxCell>
        <mxCell id="dG040CZCFqrrKlF94xfp-154" style="edgeStyle=orthogonalEdgeStyle;rounded=0;orthogonalLoop=1;jettySize=auto;html=1;entryX=0.5;entryY=0;entryDx=0;entryDy=0;entryPerimeter=0;" edge="1" parent="1" source="dG040CZCFqrrKlF94xfp-140" target="dG040CZCFqrrKlF94xfp-152">
          <mxGeometry relative="1" as="geometry" />
        </mxCell>
        <mxCell id="dG040CZCFqrrKlF94xfp-155" style="edgeStyle=orthogonalEdgeStyle;rounded=0;orthogonalLoop=1;jettySize=auto;html=1;entryX=0;entryY=0.5;entryDx=0;entryDy=0;entryPerimeter=0;" edge="1" parent="1" source="dG040CZCFqrrKlF94xfp-18" target="dG040CZCFqrrKlF94xfp-78">
          <mxGeometry relative="1" as="geometry" />
        </mxCell>
        <mxCell id="dG040CZCFqrrKlF94xfp-156" style="edgeStyle=orthogonalEdgeStyle;rounded=0;orthogonalLoop=1;jettySize=auto;html=1;entryX=0;entryY=0.5;entryDx=0;entryDy=0;entryPerimeter=0;" edge="1" parent="1" source="dG040CZCFqrrKlF94xfp-49" target="dG040CZCFqrrKlF94xfp-134">
          <mxGeometry relative="1" as="geometry" />
        </mxCell>
      </root>
    </mxGraphModel>
  </diagram>
</mxfile>
